<?xml version="1.0" encoding="utf-8"?>
<!-- Generator: Adobe Illustrator 27.0.0, SVG Export Plug-In . SVG Version: 6.00 Build 0)  -->
<svg version="1.1" id="Capa_1" xmlns="http://www.w3.org/2000/svg" xmlns:xlink="http://www.w3.org/1999/xlink" x="0px" y="0px"
	 viewBox="0 0 2517.7 702.8" style="enable-background:new 0 0 2517.7 702.8;" xml:space="preserve">
<style type="text/css">
	.st0{fill:#FFFFFF;}
	.st1{fill:#FFDE00;}
	.st2{fill:none;stroke:#FFFFFF;stroke-width:6.93;stroke-miterlimit:10;}
	.st3{fill:#EEEEEE;}
	.st4{font-family:'RobotoCondensed-Regular';}
	.st5{font-size:80px;}
</style>
<path class="st0" d="M869.2,434.4l-96.9-298H824l76.7,244.3l76.7-244.3h51.7l-96.9,298L869.2,434.4L869.2,434.4z"/>
<path class="st0" d="M1065.8,434.4v-298h49.7v298H1065.8z"/>
<path class="st0" d="M1152.6,434.4l96.9-298h63l96.9,298h-52.1l-23-70.7h-107.8l-22.6,70.7L1152.6,434.4L1152.6,434.4z
	 M1238.2,318.9h84l-42-139.7L1238.2,318.9z"/>
<path class="st0" d="M1571.4,434.4c-14,0-26-2.2-36.1-6.5c-9.9-4.1-18-11.6-22.8-21.2c-5.1-9.8-7.7-22.8-7.7-39V136.4h49.7v223.3
	c0,7.5,1.3,13.5,4,18c2.4,4.2,6.2,7.4,10.7,9.1c4.7,1.7,9.7,2.5,14.7,2.4h98.9v45.2L1571.4,434.4z"/>
<path class="st0" d="M1720.4,434.4v-298h49.6v298H1720.4z"/>
<path class="st0" d="M1825.7,434.4v-298h113.9c28,0,48.7,6.6,62.2,19.8s20.2,32.4,20.2,57.8c0,11.8-1.8,22.3-5.4,31.3
	c-3.2,8.4-8.2,16-14.7,22.2c-6.1,5.8-13.6,9.9-21.8,11.9c6.4,1.7,12.6,4.2,18.4,7.5c6.4,3.6,12,8.3,16.8,13.9
	c5.4,6.4,9.5,13.7,12.1,21.6c3,8.5,4.4,18.4,4.4,29.7c0,20.5-3.4,36.7-10.3,48.7c-6.7,11.8-17.2,20.9-29.9,25.8
	c-13.1,5.3-28.7,7.9-47,7.9L1825.7,434.4z M1875.4,262.4h65c10,0,18-3.7,24.2-11.1s9.4-17.2,9.7-29.3c0.3-15.3-3-26-9.9-31.9
	s-15.3-8.9-25.2-8.9h-63.8L1875.4,262.4L1875.4,262.4z M1875.4,389.6h67.4c8.3,0,15.6-1.5,21.8-4.4c6.3-3,11.3-8.1,14.4-14.3
	c3.4-6.6,5-15.7,5-27.3c0-9.1-1.8-16.8-5.2-23c-3.4-6.1-8.4-11-14.5-14.3c-6.6-3.4-14-5.2-21.4-5h-67.4v88.3L1875.4,389.6
	L1875.4,389.6z"/>
<path class="st0" d="M2075.7,434.4v-298h121.1c10.6-0.1,21.1,1.2,31.3,3.8c9.7,2.5,18.7,7.3,26.2,13.9c7.7,6.7,13.7,16.1,18.2,28.1
	s6.7,27.5,6.7,46.6c0,14.8-1.5,27.1-4.4,37s-6.9,17.8-11.7,24c-4.4,5.8-10,10.7-16.4,14.3c-5.8,3.2-11.8,6-18,8.3l57.3,122h-50.5
	l-51.7-114.7h-13.1c-5,0-10.2-0.1-15.5-0.2s-10.6-0.3-15.8-0.4c-5.1-0.1-9.8-0.2-14.1-0.2v115.5L2075.7,434.4L2075.7,434.4z
	 M2125.3,279.8h63c5.5,0.1,10.9-0.7,16.1-2.2c4.9-1.5,9.3-4.2,12.9-7.9c3.8-3.8,6.7-8.9,8.7-15.3c2-6.5,3-14.8,3-25
	c0-10-1-18.1-3-24.4c-2-6.3-4.9-11.2-8.7-14.5c-3.8-3.4-8.3-5.8-13.1-7.1c-5.2-1.4-10.6-2-15.9-2h-63V279.8z"/>
<path class="st0" d="M2395,436.4c-7.2-0.1-14.5-0.7-21.6-1.8c-8-1.2-15.8-4-22.8-8.1c-7.3-4.2-13.2-10.4-17.8-18.8
	s-6.9-19.8-6.8-34.3v-172c0-12.7,1.9-23.2,5.6-31.7c3.8-8.5,8.8-15.1,15.1-20c6.2-4.8,13.4-8.3,21-10.3c7.4-2,15.1-3,22.8-3
	c18.8,0,35.8,0.3,50.9,0.8c15.1,0.5,28.9,1.1,41.4,1.6s24.2,1.2,34.9,2v41.6h-112.6c-9.2,0-16.4,2.3-21.6,6.9s-7.9,11.7-7.9,21.4
	v52.9l124,2.8v39.2l-124,2.8v51.3c0,8.1,1.4,14.3,4.2,18.6c2.6,4.1,6.4,7.2,10.9,8.9c4.5,1.6,9.2,2.4,13.9,2.4h113.1v41.6
	c-11.8,1.1-24.8,2-38.8,2.6c-14,0.7-28.2,1.2-42.6,1.6C2422,435.8,2408.2,436.1,2395,436.4z"/>
<path class="st1" d="M84.9,103.6h512.5c7.2,0,13.1,5.9,13.1,13.1l0,0v518.2c0,7.7-6.2,13.9-13.9,13.9H65.3l0,0V123.2
	C65.3,112.3,74.1,103.6,84.9,103.6L84.9,103.6z"/>
<path d="M65.3,605.7l312.3-312.3H211.1c-12.7,0-24.8-6.5-30.8-17.6c-4.4-8-5.5-18.5,3.4-30.4c6.7-8.9,17.2-14.1,28.4-14.1h240.1
	c8.9,0,17.5,3.5,23.8,9.9l0.4,0.4c5.8,6.2,9,14.3,8.9,22.8v243.3c0,4.6-0.8,9.2-2.5,13.5c-10.8,27.4-46.9,27.5-57.4,0.3
	c-1.6-4.2-2.4-8.7-2.3-13.2V334.1L110.3,648.8h-45V605.7z"/>
<path class="st2" d="M668,48.1c-107,7.2-249.6-9.6-305.3-12c-44.1-1.9-158.8-10.9-173.8-12C119.7,19.4,72.3,18.2,5,11.1l7.7,680.4
	h156c27.9,0,89.2-4.8,127-2.4c33.4,0,97,0.7,131.5,2.4c26.2,1.3,73,4.5,104.8,4.8c12.8,0.1,60.7-2.4,73.5-2.4h58
	c0,0,4.8-122,4.5-162.6c-0.3-34.7-4.4-104-4.5-138.7c-0.1-40.1,3.4-120.2,4.5-160.2C669.2,186.2,670.2,143.7,668,48.1z"/>
<path class="st3" d="M800.1,599.9v-88.8h-30v-15.7h77.5v15.7h-29.9v88.8H800.1z"/>
<path class="st3" d="M859.6,599.9V495.3H902c3.7,0,7.4,0.4,11,1.4c3.4,0.9,6.6,2.5,9.2,4.9c2.9,2.7,5.1,6.1,6.4,9.8
	c1.6,4.2,2.3,9.7,2.3,16.4c0.1,4.4-0.4,8.8-1.6,13c-0.8,3-2.2,5.9-4.1,8.4c-1.6,2-3.5,3.7-5.7,5c-2,1.1-4.1,2.1-6.3,2.9l20.1,42.8
	h-17.7l-18.1-40.2h-4.6c-1.8,0-3.6,0-5.5-0.1l-5.5-0.2c-1.8,0-3.5-0.1-5-0.1v40.5L859.6,599.9z M877,545.6h22.1
	c1.9,0,3.8-0.2,5.7-0.8c1.7-0.5,3.3-1.5,4.5-2.8c1.4-1.5,2.5-3.4,3-5.4c0.8-2.9,1.1-5.8,1.1-8.8c0.1-2.9-0.3-5.8-1.1-8.6
	c-1-3.7-3.9-6.7-7.6-7.6c-1.8-0.5-3.7-0.7-5.6-0.7H877V545.6z"/>
<path class="st3" d="M971.6,600.6c-2.5,0-5.1-0.2-7.6-0.6c-2.8-0.4-5.5-1.4-8-2.8c-2.7-1.6-4.8-3.9-6.2-6.6c-1.6-2.9-2.4-6.9-2.4-12
	v-60.4c-0.1-3.8,0.6-7.6,2-11.1c1.2-2.7,3-5.2,5.3-7c2.2-1.7,4.7-2.9,7.3-3.6s5.3-1.1,8-1.1c6.6,0,12.5,0.1,17.8,0.3
	s10.1,0.4,14.5,0.6s8.5,0.4,12.2,0.7v14.6H975c-2.7-0.2-5.4,0.7-7.6,2.4c-1.8,1.6-2.8,4.1-2.8,7.5V540l43.5,1v13.7l-43.5,1v18
	c-0.1,2.3,0.4,4.5,1.5,6.5c0.9,1.4,2.2,2.5,3.8,3.1s3.2,0.9,4.9,0.8h39.7v14.6c-4.2,0.4-8.7,0.7-13.6,0.9s-9.9,0.4-14.9,0.6
	C981,600.4,976.2,600.5,971.6,600.6z"/>
<path class="st3" d="M1031.5,599.9V495.3h17.4V540h15.4l24.1-44.6h18.7l-28.8,52.4l29.4,52.1H1089l-24.8-44h-15.4v44L1031.5,599.9z"
	/>
<path class="st3" d="M1180.9,600.6c-4.9,0.1-9.8-1.1-14.1-3.5c-4.1-2.3-7.6-5.6-9.8-9.8c-2.4-4.4-3.6-9.4-3.5-14.5
	c0-5,1.1-9.9,3.2-14.4c2.4-4.7,5.7-8.9,9.8-12.2l8.8-7.5l-2.1-3.3c-2.9-4.3-4.8-8.1-5.6-11.2c-0.8-2.8-1.2-5.6-1.2-8.5
	c0-4.9,1.2-8.8,3.5-11.8c2.4-3,5.7-5.2,9.3-6.4c4.2-1.4,8.5-2.1,12.9-2c3.7,0,7.2,0.1,10.4,0.4c3.2,0.2,6.2,0.6,8.9,1s5,0.9,7,1.3
	V511h-23.1c-2.9-0.1-5.8,0.6-8.4,2.1c-2.1,1.4-3.1,3.5-3.1,6.5c0.1,2.2,0.6,4.3,1.6,6.2c1.5,2.9,3.2,5.6,5.2,8.2l22.7,31l20.5-18.8
	l6.5,7.8l-9.8,14l-8.6,8.4l17.7,23.5h-18.3l-10.6-13.6l-5,4.5c-3.5,3.2-7.5,5.8-11.9,7.6C1189.7,599.9,1185.3,600.6,1180.9,600.6z
	 M1183.9,584.6c2.3,0,4.6-0.4,6.8-1.3c2.7-1.2,5.1-2.9,7.1-5l3.8-3.8l-17.8-23.8l-6.1,5.4c-2.5,2-4.5,4.5-5.9,7.3
	c-1.1,2.3-1.6,4.9-1.6,7.4c-0.2,3.7,1.2,7.2,3.7,9.9C1176.3,583.3,1179.6,584.6,1183.9,584.6L1183.9,584.6z"/>
<path class="st3" d="M1327.5,600.7c-5.5,0.1-10.9-0.6-16.2-2.1c-4.6-1.4-8.7-4.1-11.8-7.8c-3.2-3.8-5.6-9.1-7.2-16.1
	s-2.4-16.2-2.4-27.5c0-10.7,0.8-19.4,2.5-26.3s4.1-12.3,7.4-16.1c3.1-3.8,7.3-6.6,12-8.1c5.2-1.6,10.7-2.3,16.1-2.3
	c4,0,8.1,0.2,12.1,0.7c3.9,0.5,7.6,1,10.9,1.7c2.9,0.6,5.8,1.3,8.7,2.1v13.5c-2.2-0.5-4.5-0.8-6.8-1.1c-2.9-0.3-6.2-0.6-9.9-0.9
	c-3.7-0.2-7.5-0.4-11.5-0.4c-3.8-0.1-7.5,0.4-11.1,1.5c-3,0.9-5.6,2.9-7.4,5.5c-1.9,2.7-3.3,6.4-4.1,11.3c-1,6.3-1.4,12.7-1.3,19.1
	c-0.1,6.4,0.3,12.7,1.2,19c0.8,4.9,2.1,8.7,3.8,11.4c1.7,2.6,4.2,4.6,7.2,5.6c3.7,1.1,7.6,1.6,11.5,1.5c7.1,0,12.9-0.2,17.4-0.5
	s8.2-0.7,10.9-1.1v13.5c-3,0.8-6,1.5-9,2c-3.3,0.6-6.9,1-10.8,1.3C1336,600.6,1331.9,600.7,1327.5,600.7z"/>
<path class="st3" d="M1398.7,599.9c-4.3,0.1-8.6-0.7-12.7-2.3c-3.5-1.4-6.3-4.1-8-7.4c-1.8-3.4-2.7-8-2.7-13.7v-81.1h17.4v78.3
	c-0.1,2.2,0.4,4.4,1.4,6.3c0.8,1.5,2.2,2.6,3.8,3.2c1.7,0.6,3.4,0.9,5.2,0.8h34.7v15.9H1398.7z"/>
<path class="st3" d="M1451,599.9V495.3h17.4v104.5H1451V599.9z"/>
<path class="st3" d="M1485.1,599.9l12-104.5h17l25.3,83.7l25.2-83.7h17l12.4,104.5h-17l-9.6-82.1l2.8,0.3l-22.7,81.9h-16.4
	l-22.9-81.9l3-0.1l-9.2,82h-16.9L1485.1,599.9L1485.1,599.9z"/>
<path class="st3" d="M1610.6,599.9V495.3h39.9c9.8,0,17.1,2.3,21.8,6.9c4.7,4.6,7.1,11.4,7.1,20.3c0.1,3.8-0.6,7.5-1.9,11
	c-1.1,2.9-2.9,5.6-5.2,7.8c-2.2,2-4.8,3.5-7.7,4.2c2.2,0.6,4.4,1.5,6.4,2.6c2.2,1.3,4.2,2.9,5.9,4.9c1.9,2.2,3.3,4.8,4.2,7.6
	c1.1,3.4,1.6,6.9,1.6,10.4c0,7.2-1.2,12.9-3.6,17.1c-2.3,4.1-6,7.3-10.5,9.1c-5.3,2-10.9,2.9-16.5,2.8L1610.6,599.9z M1628,539.5
	h22.8c3.3,0.1,6.4-1.3,8.5-3.9c2.2-2.6,3.3-6,3.4-10.3c0.1-5.4-1.1-9.1-3.5-11.2c-2.5-2.1-5.6-3.2-8.8-3.1H1628V539.5z M1628,584.1
	h23.7c2.6,0.1,5.2-0.5,7.7-1.6c2.2-1.1,3.9-2.8,5-5c1.2-2.3,1.8-5.5,1.8-9.6c0.1-2.8-0.5-5.6-1.8-8.1c-1.2-2.1-3-3.9-5.1-5
	c-2.3-1.2-4.9-1.8-7.5-1.8H1628V584.1z"/>
<text transform="matrix(1 0 0 1 1692.9092 552.5908)" class="st0 st4 st5">®</text>
</svg>
