<svg id="Capa_1" data-name="Capa 1" xmlns="http://www.w3.org/2000/svg" viewBox="0 0 2517.79 702.82"><defs><style>.cls-1{fill:#fff;}.cls-2{fill:#ffde00;}.cls-3{fill:none;stroke:#fff;stroke-miterlimit:10;stroke-width:6.93px;}.cls-4{fill:#eee;}</style></defs><title>Isologo Dark</title><path class="cls-1" d="M869.18,434.39l-96.9-298H824l76.72,244.28,76.71-244.28h51.69l-96.91,298Z"/><path class="cls-1" d="M1065.82,434.39v-298h49.66v298Z"/><path class="cls-1" d="M1152.62,434.39l96.91-298h63l96.91,298h-52.09l-23-70.66H1226.51l-22.61,70.66Zm85.6-115.48h84l-42-139.7Z"/><path class="cls-1" d="M1571.37,434.39q-21,0-36.14-6.46a44.86,44.86,0,0,1-22.82-21.2q-7.67-14.73-7.67-39V136.41h49.67V359.69q0,11.31,4,18a20.48,20.48,0,0,0,10.7,9.08,42.7,42.7,0,0,0,14.73,2.43h98.93v45.22Z"/><path class="cls-1" d="M1720.36,434.39v-298H1770v298Z"/><path class="cls-1" d="M1825.73,434.39v-298H1939.6q42,0,62.18,19.78T2022,213.93q0,17.77-5.45,31.29a61,61,0,0,1-14.74,22.21A49.56,49.56,0,0,1,1980,279.34a79.28,79.28,0,0,1,18.38,7.47,62.36,62.36,0,0,1,16.75,13.93,66,66,0,0,1,12.11,21.61q4.44,12.7,4.45,29.67,0,30.69-10.3,48.66a58.63,58.63,0,0,1-29.88,25.84q-19.59,7.88-47,7.87Zm49.67-172h65q14.94,0,24.23-11.11t9.69-29.27q.4-23-9.89-31.9t-25.24-8.88H1875.4Zm0,127.18h67.43q12.51,0,21.8-4.44A30.86,30.86,0,0,0,1979,370.8q5.05-9.9,5-27.26,0-13.71-5.25-23a36.38,36.38,0,0,0-14.53-14.34,44.19,44.19,0,0,0-21.4-5H1875.4Z"/><path class="cls-1" d="M2075.66,434.39v-298H2196.8a124.19,124.19,0,0,1,31.29,3.83,63.82,63.82,0,0,1,26.24,13.93q11.52,10.1,18.17,28.07t6.66,46.63q0,22.22-4.44,36.95t-11.7,24a54.41,54.41,0,0,1-16.36,14.34,123.89,123.89,0,0,1-18,8.27L2286,434.39h-50.47l-51.68-114.67h-13.13q-7.47,0-15.54-.2t-15.75-.41c-5.11-.13-9.83-.2-14.13-.2V434.39Zm49.67-154.64h63a54.88,54.88,0,0,0,16.15-2.23,30.63,30.63,0,0,0,12.92-7.87q5.66-5.64,8.68-15.34t3-25q0-14.93-3-24.42t-8.68-14.54a32.08,32.08,0,0,0-13.12-7.06,60.82,60.82,0,0,0-15.95-2h-63Z"/><path class="cls-1" d="M2395,436.41a144.6,144.6,0,0,1-21.6-1.82,65.3,65.3,0,0,1-22.81-8.07q-10.9-6.25-17.77-18.78T2326,373.42v-172q0-19,5.65-31.7t15.14-20a58.73,58.73,0,0,1,21-10.29,89.26,89.26,0,0,1,22.81-3q28.26,0,50.88.81t41.38,1.61q18.78.81,34.93,2v41.59H2405.14q-13.74,0-21.61,6.86t-7.87,21.4v52.9l124,2.82v39.17l-124,2.82v51.28q0,12.12,4.24,18.58a21.86,21.86,0,0,0,10.9,8.88,40.38,40.38,0,0,0,13.93,2.42h113.06v41.59q-17.77,1.62-38.76,2.63t-42.6,1.61Q2414.82,436,2395,436.41Z"/><path class="cls-2" d="M84.87,103.56H597.42a13.07,13.07,0,0,1,13.07,13.07v518.2a13.93,13.93,0,0,1-13.93,13.93H65.28a0,0,0,0,1,0,0V123.15A19.59,19.59,0,0,1,84.87,103.56Z"/><path d="M65.28,605.71,377.56,293.44H211.06c-12.68,0-24.79-6.49-30.82-17.64-4.35-8.05-5.53-18.47,3.35-30.45A35.36,35.36,0,0,1,212,231.25H452.15a33.11,33.11,0,0,1,23.75,9.88l.35.36a33.1,33.1,0,0,1,8.94,22.78V507.59a36.76,36.76,0,0,1-2.45,13.53c-10.83,27.43-46.92,27.46-57.41.33A36.59,36.59,0,0,1,423,508.27V334.1L110.32,648.76h-45Z"/><path class="cls-3" d="M668,48.06c-107,7.18-249.62-9.57-305.34-12-44.09-1.89-158.79-10.92-173.84-12C119.68,19.36,72.35,18.21,5,11.05l7.7,680.38h156c27.87,0,89.15-4.78,127-2.39,33.43,0,97,.73,131.5,2.39,26.18,1.26,73,4.48,104.75,4.78,12.81.12,60.73-2.39,73.54-2.39h58s4.76-122,4.46-162.63c-.26-34.7-4.39-104-4.46-138.72-.08-40.08,3.4-120.19,4.46-160.25C669.17,186.2,670.18,143.73,668,48.06Z"/><path class="cls-4" d="M800.08,599.86v-88.8h-30V495.34h77.46v15.72H817.64v88.8Z"/><path class="cls-4" d="M859.56,599.86V495.34h42.49a43.27,43.27,0,0,1,11,1.35,22.19,22.19,0,0,1,9.21,4.88,23.79,23.79,0,0,1,6.37,9.84q2.34,6.31,2.34,16.36a45.59,45.59,0,0,1-1.56,13,25.5,25.5,0,0,1-4.11,8.43,19,19,0,0,1-5.73,5,44,44,0,0,1-6.3,2.91l20.11,42.77H915.64l-18.12-40.22h-4.61c-1.75,0-3.56,0-5.45-.07l-5.52-.15c-1.8,0-3.45-.07-5-.07v40.51ZM877,545.62h22.09a19.34,19.34,0,0,0,5.67-.78,10.81,10.81,0,0,0,4.53-2.76,12.88,12.88,0,0,0,3-5.39,30,30,0,0,0,1.07-8.78,28.6,28.6,0,0,0-1.07-8.56,10.49,10.49,0,0,0-7.64-7.58,21.48,21.48,0,0,0-5.6-.71H877Z"/><path class="cls-4" d="M971.58,600.57a51.26,51.26,0,0,1-7.57-.64,23,23,0,0,1-8-2.83,16.58,16.58,0,0,1-6.24-6.59q-2.4-4.39-2.4-12V518.14a27.46,27.46,0,0,1,2-11.12,17.62,17.62,0,0,1,5.31-7A20.65,20.65,0,0,1,962,496.4a31.33,31.33,0,0,1,8-1.06q9.9,0,17.84.28t14.52.57q6.58.29,12.25.71v14.59H975.12a11.14,11.14,0,0,0-7.57,2.4q-2.76,2.42-2.76,7.51V540l43.47,1v13.74l-43.47,1v18a11.88,11.88,0,0,0,1.48,6.51,7.71,7.71,0,0,0,3.83,3.12,14.31,14.31,0,0,0,4.88.85h39.66v14.59q-6.24.56-13.6.92t-14.94.56Q978.52,600.42,971.58,600.57Z"/><path class="cls-4" d="M1031.49,599.86V495.34h17.42V540h15.44l24.07-44.61h18.7l-28.75,52.4,29.45,52.12h-18.69l-24.78-44.05h-15.44v44.05Z"/><path class="cls-4" d="M1180.9,600.57a28.76,28.76,0,0,1-14.09-3.47,24.76,24.76,0,0,1-9.84-9.78,29,29,0,0,1-3.54-14.51,32.6,32.6,0,0,1,3.25-14.38,37.65,37.65,0,0,1,9.77-12.25l8.79-7.5-2.13-3.26q-4.39-6.51-5.59-11.19a34,34,0,0,1-1.21-8.5q0-7.35,3.54-11.75a20,20,0,0,1,9.35-6.37,39.48,39.48,0,0,1,12.89-2q5.52,0,10.41.36c3.25.23,6.23.56,8.92,1s5,.87,7,1.34v12.75h-23.08a15.08,15.08,0,0,0-8.36,2.05q-3.12,2.05-3.12,6.45a14,14,0,0,0,1.63,6.23,65.44,65.44,0,0,0,5.17,8.21l22.66,31,20.54-18.84,6.51,7.79-9.77,14-8.64,8.36,17.7,23.51H1221.4l-10.62-13.6-5,4.53a39.29,39.29,0,0,1-11.9,7.58A36.49,36.49,0,0,1,1180.9,600.57Zm3-16a18.49,18.49,0,0,0,6.8-1.27,22.58,22.58,0,0,0,7.08-5l3.83-3.82-17.85-23.79-6.09,5.38a21.9,21.9,0,0,0-5.87,7.29,17.86,17.86,0,0,0-1.63,7.43,13.67,13.67,0,0,0,3.68,9.92C1176.27,583.29,1179.63,584.56,1183.87,584.56Z"/><path class="cls-4" d="M1327.48,600.71a55.94,55.94,0,0,1-16.22-2.13,24.11,24.11,0,0,1-11.75-7.79q-4.76-5.65-7.15-16.14T1290,547.17q0-16,2.48-26.34t7.36-16.14a25.66,25.66,0,0,1,12-8.08,53.24,53.24,0,0,1,16.14-2.26,101.58,101.58,0,0,1,12.11.71q5.88.7,10.91,1.7a89.52,89.52,0,0,1,8.71,2.12v13.46a61.25,61.25,0,0,0-6.8-1.07q-4.39-.5-9.91-.85c-3.69-.23-7.51-.35-11.48-.35a36.08,36.08,0,0,0-11.11,1.49,14.36,14.36,0,0,0-7.44,5.45q-2.84,4-4.1,11.33a114.9,114.9,0,0,0-1.28,19.12,121.88,121.88,0,0,0,1.2,19q1.2,7.38,3.83,11.41a13.51,13.51,0,0,0,7.22,5.59A36.44,36.44,0,0,0,1331.3,585q10.62,0,17.42-.5t10.91-1.06v13.45a84,84,0,0,1-9,2q-5,.84-10.76,1.34T1327.48,600.71Z"/><path class="cls-4" d="M1398.71,599.86a32.16,32.16,0,0,1-12.67-2.27,15.74,15.74,0,0,1-8-7.43q-2.7-5.17-2.69-13.67V495.34h17.42v78.32a12.15,12.15,0,0,0,1.41,6.3,7.28,7.28,0,0,0,3.75,3.19,15.19,15.19,0,0,0,5.17.85h34.7v15.86Z"/><path class="cls-4" d="M1451,599.86V495.34h17.42V599.86Z"/><path class="cls-4" d="M1485.1,599.86l12-104.52h17l25.35,83.7,25.2-83.7h17L1594,599.86h-17l-9.63-82.14,2.83.28-22.66,81.86h-16.43L1508.19,518l3-.14-9.2,82Z"/><path class="cls-4" d="M1610.58,599.86V495.34h39.94q14.73,0,21.81,6.94t7.08,20.25a29.29,29.29,0,0,1-1.91,11,21.55,21.55,0,0,1-5.17,7.79,17.4,17.4,0,0,1-7.65,4.17,27.69,27.69,0,0,1,6.44,2.62A22,22,0,0,1,1677,553a23.18,23.18,0,0,1,4.25,7.58,31.5,31.5,0,0,1,1.56,10.41q0,10.75-3.61,17.06a20.62,20.62,0,0,1-10.48,9.07,44.24,44.24,0,0,1-16.5,2.76ZM1628,539.53h22.8a10.57,10.57,0,0,0,8.5-3.9q3.26-3.89,3.4-10.27.13-8.07-3.47-11.18a13.07,13.07,0,0,0-8.85-3.12H1628Zm0,44.61h23.65a17.56,17.56,0,0,0,7.65-1.56,10.85,10.85,0,0,0,5-5c1.17-2.31,1.77-5.5,1.77-9.56a16.16,16.16,0,0,0-1.85-8.07,12.7,12.7,0,0,0-5.09-5,15.52,15.52,0,0,0-7.51-1.77H1628Z"/></svg>