<?xml version="1.0" standalone="no"?>
<!DOCTYPE svg PUBLIC "-//W3C//DTD SVG 20010904//EN"
 "http://www.w3.org/TR/2001/REC-SVG-20010904/DTD/svg10.dtd">
<svg version="1.0" xmlns="http://www.w3.org/2000/svg"
 width="1444.000000pt" height="1444.000000pt" viewBox="0 0 1444.000000 1444.000000"
 preserveAspectRatio="xMidYMid meet">
<metadata>
Created by potrace 1.14, written by Peter Selinger 2001-2017
</metadata>
<g transform="translate(0.000000,1444.000000) scale(0.100000,-0.100000)"
fill="#000000" stroke="none">
<path d="M1631 14429 c-282 -25 -580 -128 -811 -279 -472 -310 -760 -791 -810
-1350 -14 -165 -14 -11004 1 -11160 58 -628 423 -1165 980 -1446 167 -83 400
-153 585 -174 72 -8 1611 -10 5699 -8 5323 3 5604 4 5688 21 381 77 690 241
949 503 258 261 406 539 490 920 l22 99 3 5615 c3 5057 2 5626 -12 5725 -120
838 -786 1465 -1632 1535 -147 12 -11015 11 -11152 -1z m11134 -801 c425 -98
727 -383 842 -794 l28 -99 0 -5515 0 -5515 -27 -96 c-105 -381 -385 -663 -770
-777 l-93 -27 -5475 -3 c-4029 -2 -5496 0 -5555 8 -95 14 -268 67 -263 81 2 6
1803 1698 4003 3760 l4000 3750 5 -2398 c5 -2218 7 -2402 22 -2453 69 -222
237 -385 454 -440 291 -75 597 70 724 342 64 136 60 -104 60 3369 0 3118 0
3167 -20 3243 -58 227 -231 402 -460 463 -61 17 -245 18 -3250 18 -3060 0
-3188 -1 -3250 -18 -255 -72 -430 -270 -470 -531 -38 -250 100 -516 330 -635
146 -76 -65 -71 2578 -71 1467 0 2372 -4 2370 -9 -1 -5 -1747 -1644 -3878
-3642 l-3875 -3632 -3 5274 c-2 3719 0 5306 8 5381 25 247 123 464 290 642
171 182 423 309 665 335 44 5 2524 8 5510 7 4960 -2 5436 -3 5500 -18z"/>
</g>
</svg>
