<?xml version="1.0" encoding="utf-8"?>
<!-- Generator: Adobe Illustrator 24.0.1, SVG Export Plug-In . SVG Version: 6.00 Build 0)  -->
<svg version="1.1" id="Capa_1" xmlns="http://www.w3.org/2000/svg" xmlns:xlink="http://www.w3.org/1999/xlink" x="0px" y="0px"
	 viewBox="0 0 73.4 73.4" style="enable-background:new 0 0 73.4 73.4;" xml:space="preserve">
<style type="text/css">
	.st0{fill:#2CB742;}
	.st1{fill:#FFFFFF;}
</style>
<g>
	<g>
		<circle class="st0" cx="36.7" cy="36.7" r="36"/>
	</g>
	<g>
		<path class="st0" d="M20.7,45.9l-0.4-0.6c-1.8-3-2.7-6.4-2.7-9.9c0-10.7,8.7-19.5,19.5-19.5c10.7,0,19.5,8.7,19.5,19.5
			s-8.7,19.5-19.5,19.5c-3.2,0-6.3-0.8-9.1-2.2l-0.5-0.3l-9.8,2.6L20.7,45.9z"/>
		<path class="st1" d="M37.1,17.3c9.9,0,18,8.1,18,18s-8.1,18-18,18c-3,0-5.8-0.7-8.4-2.1l-1-0.5L26.5,51l-6.6,1.7l1.9-5.8l0.4-1.3
			l-0.7-1.2c-1.6-2.8-2.5-5.9-2.5-9.2C19.1,25.4,27.1,17.3,37.1,17.3 M37.1,14.3c-11.6,0-21,9.4-21,21c0,3.9,1.1,7.6,2.9,10.7
			l-3.7,11l12-3.1c2.9,1.5,6.2,2.4,9.8,2.4c11.6,0,21-9.4,21-21S48.7,14.3,37.1,14.3L37.1,14.3z"/>
	</g>
	<path class="st1" d="M48.5,41.2c-0.8-1.6-3.9-3.3-3.9-3.3c-0.7-0.4-1.5-0.4-1.9,0.3c0,0-1,1.2-1.2,1.4c-1.1,0.8-2.2,0.7-3.3-0.3
		l-2.5-2.5l-2.5-2.5c-1.1-1.1-1.1-2.1-0.3-3.3c0.2-0.3,1.4-1.2,1.4-1.2c0.7-0.4,0.7-1.2,0.3-1.9c0,0-1.8-3-3.3-3.9
		c-0.7-0.4-1.5-0.2-2,0.3l-1.1,1.1c-3.5,3.5-1.8,7.4,1.7,10.9l3.2,3.2l3.2,3.2c3.5,3.5,7.4,5.2,10.9,1.7l1.1-1.1
		C48.8,42.7,48.9,41.9,48.5,41.2z"/>
</g>
</svg>
